<?xml version="1.0" encoding="UTF-8" standalone="no"?>
<svg
   xmlns:dc="http://purl.org/dc/elements/1.1/"
   xmlns:cc="http://creativecommons.org/ns#"
   xmlns:rdf="http://www.w3.org/1999/02/22-rdf-syntax-ns#"
   xmlns:svg="http://www.w3.org/2000/svg"
   xmlns="http://www.w3.org/2000/svg"
   id="svg1131"
   version="1.1"
   viewBox="0 0 15 15"
   height="15mm"
   width="15mm">
  <defs
     id="defs1125">
    <clipPath
       id="clipPath26"
       clipPathUnits="userSpaceOnUse">
      <path
         id="path24"
         d="M 0,841.89 H 595.28 V 0 H 0 Z" />
    </clipPath>
  </defs>
  <metadata
     id="metadata1128">
    <rdf:RDF>
      <cc:Work
         rdf:about="">
        <dc:format>image/svg+xml</dc:format>
        <dc:type
           rdf:resource="http://purl.org/dc/dcmitype/StillImage" />
        <dc:title></dc:title>
      </cc:Work>
    </rdf:RDF>
  </metadata>
  <g
     transform="translate(0,-282)"
     id="layer1">
    <g
       transform="translate(39.536307,389.29657)"
       id="g1747">
      <g
         id="g28"
         transform="matrix(0.35277777,0,0,-0.35277777,-25.325557,-99.855707)">
        <path
           d="m 0,0 c 0,-10.406 -8.574,-18.84 -19.154,-18.84 -10.579,0 -19.154,8.434 -19.154,18.84 0,10.406 8.575,18.839 19.154,18.839 C -8.574,18.839 0,10.406 0,0"
           style="fill:#ffffff;fill-opacity:1;fill-rule:nonzero;stroke:none"
           id="path30" />
      </g>
      <g
         id="g32"
         transform="matrix(0.35277777,0,0,-0.35277777,-25.325557,-99.855707)">
        <path
           d="m 0,0 c 0,-10.406 -8.574,-18.84 -19.154,-18.84 -10.579,0 -19.154,8.434 -19.154,18.84 0,10.406 8.575,18.839 19.154,18.839 C -8.574,18.839 0,10.406 0,0 Z"
           style="fill:none;stroke:#005db9;stroke-width:1;stroke-linecap:butt;stroke-linejoin:miter;stroke-miterlimit:10;stroke-dasharray:none;stroke-opacity:1"
           id="path34" />
      </g>
      <g
         id="g36"
         transform="matrix(0.35277777,0,0,-0.35277777,-35.699798,-102.82504)">
        <path
           d="m 0,0 v -16.081 l 14.952,8.04 z"
           style="fill:#005db9;fill-opacity:1;fill-rule:nonzero;stroke:none"
           id="path38" />
      </g>
      <g
         id="g40"
         transform="matrix(0.35277777,0,0,-0.35277777,-33.942083,-102.82504)">
        <path
           d="M 0,0 V -1.463 L 12.232,-8.041 0,-14.618 v -1.463 l 14.952,8.04 z"
           style="fill:#005db9;fill-opacity:1;fill-rule:nonzero;stroke:none"
           id="path42" />
      </g>
      <g
         id="g44"
         transform="matrix(0.35277777,0,0,-0.35277777,-32.185426,-102.82504)">
        <path
           d="M 0,0 V -1.463 L 12.23,-8.041 0,-14.618 v -1.463 l 14.954,8.04 z"
           style="fill:#005db9;fill-opacity:1;fill-rule:nonzero;stroke:none"
           id="path46" />
      </g>
    </g>
  </g>
</svg>
