<?xml version="1.0" encoding="UTF-8" standalone="no"?>
<svg
   xmlns:dc="http://purl.org/dc/elements/1.1/"
   xmlns:cc="http://creativecommons.org/ns#"
   xmlns:rdf="http://www.w3.org/1999/02/22-rdf-syntax-ns#"
   xmlns:svg="http://www.w3.org/2000/svg"
   xmlns="http://www.w3.org/2000/svg"
   id="svg1449"
   version="1.1"
   viewBox="0 0 80 80"
   height="80mm"
   width="80mm">
  <defs
     id="defs1443">
    <clipPath
       id="clipPath554"
       clipPathUnits="userSpaceOnUse">
      <path
         id="path552"
         d="m 424.521,621.13 h 11.129 v -2.932 h -11.129 z" />
    </clipPath>
  </defs>
  <metadata
     id="metadata1446">
    <rdf:RDF>
      <cc:Work
         rdf:about="">
        <dc:format>image/svg+xml</dc:format>
        <dc:type
           rdf:resource="http://purl.org/dc/dcmitype/StillImage" />
        <dc:title></dc:title>
      </cc:Work>
    </rdf:RDF>
  </metadata>
  <g
     transform="translate(0,-217)"
     id="layer1">
    <g
       transform="matrix(5.4433234,0,0,5.4433234,-602.76369,-124.11143)"
       id="g2062">
      <g
         id="g540"
         transform="matrix(0.35277777,0,0,-0.35277777,124.9825,70.028556)">
        <path
           d="m 0,0 c 0,-10.45 -8.61,-18.919 -19.236,-18.919 -10.626,0 -19.237,8.469 -19.237,18.919 0,10.452 8.611,18.923 19.237,18.923 C -8.61,18.923 0,10.452 0,0"
           style="fill:#ffffff;fill-opacity:1;fill-rule:nonzero;stroke:none"
           id="path542" />
      </g>
      <g
         id="g544"
         transform="matrix(0.35277777,0,0,-0.35277777,124.9825,70.028556)">
        <path
           d="m 0,0 c 0,-10.45 -8.61,-18.919 -19.236,-18.919 -10.626,0 -19.237,8.469 -19.237,18.919 0,10.452 8.611,18.923 19.237,18.923 C -8.61,18.923 0,10.452 0,0 Z"
           style="fill:none;stroke:#005db9;stroke-width:1;stroke-linecap:butt;stroke-linejoin:miter;stroke-miterlimit:10;stroke-dasharray:none;stroke-opacity:1"
           id="path546" />
      </g>
      <g
         id="g548"
         transform="matrix(0.35277777,0,0,-0.35277777,-33.739591,292.69938)">
        <g
           id="g550" />
        <g
           id="g562">
          <g
             clip-path="url(#clipPath554)"
             id="g560">
            <g
               transform="translate(435.6504,619.665)"
               id="g558">
              <path
                 d="m 0,0 c 0,-0.812 -2.492,-1.467 -5.564,-1.467 -3.077,0 -5.565,0.655 -5.565,1.467 0,0.807 2.488,1.465 5.565,1.465 C -2.492,1.465 0,0.807 0,0"
                 style="fill:#e3e2e5;fill-opacity:1;fill-rule:nonzero;stroke:none"
                 id="path556" />
            </g>
          </g>
        </g>
      </g>
      <g
         id="g564"
         transform="matrix(0.35277777,0,0,-0.35277777,117.98586,69.933483)">
        <path
           d="M 0,0 C -1.246,0 -2.254,1.011 -2.254,2.254 -2.254,3.499 -1.246,4.51 0,4.51 1.242,4.51 2.254,3.499 2.254,2.254 2.254,1.011 1.242,0 0,0 m 0,10.971 c -4.816,0 -8.714,-3.904 -8.714,-8.717 0,-2.195 0.816,-4.201 2.152,-5.736 l 0.041,-0.042 c 0.228,-0.261 0.482,-0.508 0.742,-0.742 l 5.775,-5.775 5.707,5.709 c 1.842,1.595 3.014,3.955 3.014,6.586 0,4.813 -3.906,8.717 -8.717,8.717"
           style="fill:#005db9;fill-opacity:1;fill-rule:nonzero;stroke:none"
           id="path566" />
      </g>
    </g>
  </g>
</svg>
