<?xml version="1.0" encoding="UTF-8" standalone="no"?>
<svg
   xmlns:dc="http://purl.org/dc/elements/1.1/"
   xmlns:cc="http://creativecommons.org/ns#"
   xmlns:rdf="http://www.w3.org/1999/02/22-rdf-syntax-ns#"
   xmlns:svg="http://www.w3.org/2000/svg"
   xmlns="http://www.w3.org/2000/svg"
   xmlns:sodipodi="http://sodipodi.sourceforge.net/DTD/sodipodi-0.dtd"
   xmlns:inkscape="http://www.inkscape.org/namespaces/inkscape"
   id="Capa_1"
   data-name="Capa 1"
   viewBox="0 0 321.25 99.35002"
   version="1.1"
   sodipodi:docname="logoNormand.svg"
   inkscape:version="0.92.3 (2405546, 2018-03-11)"
   inkscape:export-filename="C:\wamp64\www\ulock\public\assets\img\logoNormand.png"
   inkscape:export-xdpi="96"
   inkscape:export-ydpi="96"
   width="321.25"
   height="99.350014">
  <metadata
     id="metadata77">
    <rdf:RDF>
      <cc:Work
         rdf:about="">
        <dc:format>image/svg+xml</dc:format>
        <dc:type
           rdf:resource="http://purl.org/dc/dcmitype/StillImage" />
        <dc:title>logo</dc:title>
      </cc:Work>
    </rdf:RDF>
  </metadata>
  <sodipodi:namedview
     pagecolor="#ffffff"
     bordercolor="#666666"
     borderopacity="1"
     objecttolerance="10"
     gridtolerance="10"
     guidetolerance="10"
     inkscape:pageopacity="0"
     inkscape:pageshadow="2"
     inkscape:window-width="1920"
     inkscape:window-height="1001"
     id="namedview75"
     showgrid="false"
     inkscape:zoom="2.3792633"
     inkscape:cx="69.139048"
     inkscape:cy="25.674999"
     inkscape:window-x="-9"
     inkscape:window-y="-9"
     inkscape:window-maximized="1"
     inkscape:current-layer="Capa_1" />
  <defs
     id="defs4">
    <style
       id="style2">.cls-1{fill:#1d1d1b;}.cls-2{fill:#005db9;}.cls-3{fill:#fff;}</style>
  </defs>
  <title
     id="title6">logo</title>
  <g
     id="g917"
     transform="matrix(1.7271182,0,0,1.7271182,2.5217869,8.9124526)">
    <path
       id="path8"
       transform="translate(-21,-26.93)"
       d="m 83.27,52.52 h -2.7 V 28.31 h 3.5 c 4.59,0 8.86,1.22 8.86,6.68 a 6.33,6.33 0 0 1 -6.07,6.68 l 7.71,10.85 H 91.26 L 83.94,41.89 h -0.67 z m 0,-13 h 0.83 c 3.05,0 6.13,-0.58 6.13,-4.34 0,-4 -2.92,-4.36 -6.16,-4.36 h -0.8 z m 0,0"
       class="cls-1"
       inkscape:connector-curvature="0"
       style="fill:#1d1d1b" />
    <path
       id="path10"
       transform="translate(-21,-26.93)"
       d="m 103.68,26.93 8.8,20.33 8.83,-20.33 4.92,25.59 h -2.76 l -3.12,-16.38 h -0.06 l -7.81,17.38 -7.77,-17.38 h -0.06 l -3.11,16.38 h -2.77 z m 0,0"
       class="cls-1"
       inkscape:connector-curvature="0"
       style="fill:#1d1d1b" />
    <path
       id="path12"
       transform="translate(-21,-26.93)"
       d="m 135.5,45.65 -2.92,6.87 h -3 l 11.22,-25.36 10.89,25.36 h -3 l -2.86,-6.87 z m 5.24,-12.2 -4.15,9.69 h 8.2 z m 0,0"
       class="cls-1"
       inkscape:connector-curvature="0"
       style="fill:#1d1d1b" />
    <path
       id="path14"
       transform="translate(-21,-26.93)"
       d="m 157.05,27.29 18.88,19.77 V 28.31 h 2.7 v 25.3 L 159.75,33.87 v 18.65 h -2.7 z m 0,0"
       class="cls-1"
       inkscape:connector-curvature="0"
       style="fill:#1d1d1b" />
    <path
       id="path16"
       transform="translate(-21,-26.93)"
       d="m 186.23,28.31 h 4.56 c 3.63,0 6.59,0.48 9.44,2.92 a 11.74,11.74 0 0 1 4,9.22 11.66,11.66 0 0 1 -3.95,9 c -2.89,2.57 -5.78,3.05 -9.57,3.05 h -4.5 z M 190.89,50 c 3,0 5.43,-0.42 7.64,-2.51 A 9.89,9.89 0 0 0 198.4,33.14 c -2.21,-2 -4.65,-2.34 -7.51,-2.34 h -2 V 50 Z m 0,0"
       class="cls-1"
       inkscape:connector-curvature="0"
       style="fill:#1d1d1b" />
    <path
       transform="translate(-21,-26.93)"
       id="path18"
       d="M 21,27.28 39.88,47.06 V 28.31 h 2.7 v 25.3 L 23.7,33.86 V 52.52 H 21 Z m 0,0"
       class="cls-1"
       inkscape:connector-curvature="0"
       style="fill:#1d1d1b" />
    <path
       id="path20"
       transform="translate(-21,-26.93)"
       d="M 74,40 A 12.72,12.72 0 1 1 61.24,27.3 12.65,12.65 0 0 1 74,40"
       class="cls-2"
       inkscape:connector-curvature="0"
       style="fill:#005db9" />
    <path
       id="path22"
       transform="translate(-21,-26.93)"
       d="m 61.24,35.27 a 3.67,3.67 0 0 0 -3.67,3.66 0.74,0.74 0 0 0 1.47,0 2.2,2.2 0 1 1 4.39,0 v 10.59 a 0.74,0.74 0 0 0 1.47,0 V 38.93 a 3.66,3.66 0 0 0 -3.66,-3.66"
       class="cls-3"
       inkscape:connector-curvature="0"
       style="fill:#ffffff" />
    <path
       id="path24"
       transform="translate(-21,-26.93)"
       d="m 61.24,38.36 a 0.73,0.73 0 0 0 -0.73,0.73 v 2.25 a 0.73,0.73 0 0 0 1.46,0 v -2.25 a 0.73,0.73 0 0 0 -0.73,-0.73"
       class="cls-3"
       inkscape:connector-curvature="0"
       style="fill:#ffffff" />
    <path
       id="path26"
       transform="translate(-21,-26.93)"
       d="m 61.24,42.92 a 0.73,0.73 0 0 0 -0.73,0.73 v 6.44 a 0.73,0.73 0 0 0 1.46,0 v -6.44 a 0.73,0.73 0 0 0 -0.73,-0.73"
       class="cls-3"
       inkscape:connector-curvature="0"
       style="fill:#ffffff" />
    <path
       id="path28"
       transform="translate(-21,-26.93)"
       d="m 58.31,45.89 a 0.73,0.73 0 0 0 -0.74,0.73 v 2.9 a 0.74,0.74 0 0 0 1.47,0 v -2.9 a 0.73,0.73 0 0 0 -0.73,-0.73"
       class="cls-3"
       inkscape:connector-curvature="0"
       style="fill:#ffffff" />
    <path
       id="path30"
       transform="translate(-21,-26.93)"
       d="m 58.31,38.25 a 0.74,0.74 0 0 0 -0.74,0.73 v 5.39 a 0.74,0.74 0 0 0 1.47,0 V 39 a 0.73,0.73 0 0 0 -0.73,-0.73"
       class="cls-3"
       inkscape:connector-curvature="0"
       style="fill:#ffffff" />
    <path
       id="path32"
       transform="translate(-21,-26.93)"
       d="m 67.09,39.29 a 0.73,0.73 0 0 0 -0.73,0.73 v 8.2 a 0.73,0.73 0 1 0 1.46,0 V 40 a 0.73,0.73 0 0 0 -0.73,-0.73"
       class="cls-3"
       inkscape:connector-curvature="0"
       style="fill:#ffffff" />
    <path
       id="path34"
       transform="translate(-21,-26.93)"
       d="m 52.45,43.79 a 0.73,0.73 0 0 0 -0.73,0.73 v 1 a 0.73,0.73 0 0 0 1.46,0 v -1 a 0.73,0.73 0 0 0 -0.73,-0.73"
       class="cls-3"
       inkscape:connector-curvature="0"
       style="fill:#ffffff" />
    <path
       id="path36"
       transform="translate(-21,-26.93)"
       d="m 52.45,38.25 a 0.73,0.73 0 0 0 -0.73,0.73 v 3.21 a 0.73,0.73 0 0 0 1.46,0 V 39 a 0.73,0.73 0 0 0 -0.73,-0.73"
       class="cls-3"
       inkscape:connector-curvature="0"
       style="fill:#ffffff" />
    <path
       id="path38"
       transform="translate(-21,-26.93)"
       d="m 56.08,36.05 a 0.73,0.73 0 0 0 -0.95,0.41 6.47,6.47 0 0 0 -0.48,2.47 v 9.29 a 0.73,0.73 0 0 0 1.46,0 V 38.93 A 5.21,5.21 0 0 1 56.48,37 0.74,0.74 0 0 0 56.08,36"
       class="cls-3"
       inkscape:connector-curvature="0"
       style="fill:#ffffff" />
    <path
       id="path40"
       transform="translate(-21,-26.93)"
       d="m 61.24,32.34 a 6.53,6.53 0 0 0 -4.12,1.45 0.73,0.73 0 0 0 -0.12,1 0.74,0.74 0 0 0 1,0.11 5.07,5.07 0 0 1 3.21,-1.13 5.13,5.13 0 0 1 5.12,5.13 v 1.46 a 0.74,0.74 0 1 0 1.47,0 v -1.43 a 6.6,6.6 0 0 0 -6.59,-6.59"
       class="cls-3"
       inkscape:connector-curvature="0"
       style="fill:#ffffff" />
    <path
       id="path42"
       transform="translate(-21,-26.93)"
       d="m 64.46,31.55 a 0.74,0.74 0 1 0 0.59,-1.35 9.53,9.53 0 0 0 -13.33,8.73 0.73,0.73 0 0 0 0.73,0.73 0.74,0.74 0 0 0 0.74,-0.73 8.06,8.06 0 0 1 8.05,-8 7.94,7.94 0 0 1 3.22,0.67"
       class="cls-3"
       inkscape:connector-curvature="0"
       style="fill:#ffffff" />
    <path
       id="path44"
       transform="translate(-21,-26.93)"
       d="m 67.3,32.53 a 0.73,0.73 0 0 0 -0.06,1 8.07,8.07 0 0 1 2.05,5.37 v 6.59 a 0.74,0.74 0 0 0 1.47,0 v -6.56 a 9.48,9.48 0 0 0 -2.43,-6.35 0.73,0.73 0 0 0 -1,0"
       class="cls-3"
       inkscape:connector-curvature="0"
       style="fill:#ffffff" />
    <path
       id="path46"
       transform="translate(-21,-26.93)"
       d="m 50.81,69.63 a 4.75,4.75 0 0 0 -0.73,-2.82 2.52,2.52 0 0 0 -4,0 4.75,4.75 0 0 0 -0.74,2.82 4.67,4.67 0 0 0 0.74,2.79 2.5,2.5 0 0 0 4,0 4.67,4.67 0 0 0 0.73,-2.79 z m -5.5,-3.44 a 3.23,3.23 0 0 1 1.28,-1.31 3.76,3.76 0 0 1 1.86,-0.43 3.52,3.52 0 0 1 2.91,1.43 6.8,6.8 0 0 1 0,7.48 3.51,3.51 0 0 1 -2.91,1.42 3.87,3.87 0 0 1 -1.86,-0.42 3.3,3.3 0 0 1 -1.28,-1.31 v 1.48 H 43.69 V 60.86 h 1.62 z m 0,0"
       class="cls-1"
       inkscape:connector-curvature="0"
       style="fill:#1d1d1b" />
    <path
       id="path48"
       transform="translate(-21,-26.93)"
       d="m 59.27,75.45 a 5.81,5.81 0 0 1 -1.34,2.28 2.58,2.58 0 0 1 -1.74,0.55 H 54.9 v -1.36 h 1 a 1.53,1.53 0 0 0 1,-0.31 4.1,4.1 0 0 0 0.83,-1.5 l 0.28,-0.73 -4,-9.69 h 1.72 l 3.08,7.7 3.08,-7.7 h 1.7 z m 0,0"
       class="cls-1"
       inkscape:connector-curvature="0"
       style="fill:#1d1d1b" />
    <path
       id="path50"
       transform="translate(-21,-26.93)"
       d="m 71.42,61.41 h 1.78 v 8 a 4.74,4.74 0 0 0 0.77,3 3.79,3.79 0 0 0 5,0 4.81,4.81 0 0 0 0.76,-3 v -8 h 1.79 v 8.18 a 5.4,5.4 0 0 1 -1.27,3.89 5,5 0 0 1 -3.75,1.3 5.06,5.06 0 0 1 -3.77,-1.3 5.4,5.4 0 0 1 -1.26,-3.89 z m 0,0"
       class="cls-1"
       inkscape:connector-curvature="0"
       style="fill:#1d1d1b" />
    <path
       id="path52"
       transform="translate(-21,-26.93)"
       d="m 91.8,69.63 a 4.75,4.75 0 0 0 -0.73,-2.82 2.52,2.52 0 0 0 -4,0 4.75,4.75 0 0 0 -0.73,2.82 4.67,4.67 0 0 0 0.66,2.79 2.5,2.5 0 0 0 4,0 4.67,4.67 0 0 0 0.73,-2.79 z m -5.49,-3.44 a 3.11,3.11 0 0 1 1.28,-1.31 3.75,3.75 0 0 1 1.85,-0.43 3.52,3.52 0 0 1 2.91,1.43 6.75,6.75 0 0 1 0,7.48 3.51,3.51 0 0 1 -2.91,1.42 3.86,3.86 0 0 1 -1.85,-0.42 3.17,3.17 0 0 1 -1.28,-1.31 v 1.48 H 84.68 V 60.86 h 1.63 z m 0,0"
       class="cls-1"
       inkscape:connector-curvature="0"
       style="fill:#1d1d1b" />
    <path
       id="path54"
       transform="translate(-21,-26.93)"
       d="m 101.87,66.2 a 2.48,2.48 0 0 0 -0.61,-0.23 3,3 0 0 0 -0.7,-0.08 2.55,2.55 0 0 0 -2.09,0.89 3.89,3.89 0 0 0 -0.74,2.56 v 5.19 H 96.1 v -9.84 h 1.63 v 1.53 a 3.17,3.17 0 0 1 1.27,-1.33 4.25,4.25 0 0 1 2,-0.44 h 0.36 0.46 z m 0,0"
       class="cls-1"
       inkscape:connector-curvature="0"
       style="fill:#1d1d1b" />
    <path
       id="path56"
       transform="translate(-21,-26.93)"
       d="m 103.59,64.69 h 1.6 v 9.84 h -1.6 z m 0,-3.83 h 1.6 v 2 h -1.6 z m 0,0"
       class="cls-1"
       inkscape:connector-curvature="0"
       style="fill:#1d1d1b" />
    <path
       id="path58"
       transform="translate(-21,-26.93)"
       d="m 114.84,65 v 1.5 a 6.73,6.73 0 0 0 -1.42,-0.52 6.41,6.41 0 0 0 -1.53,-0.18 3.5,3.5 0 0 0 -1.81,0.37 1.23,1.23 0 0 0 -0.6,1.11 1.07,1.07 0 0 0 0.43,0.89 5.08,5.08 0 0 0 1.73,0.61 l 0.56,0.11 a 5.21,5.21 0 0 1 2.44,1 2.4,2.4 0 0 1 0.73,1.87 2.53,2.53 0 0 1 -1.09,2.24 4.85,4.85 0 0 1 -3,0.8 9.55,9.55 0 0 1 -1.65,-0.15 12.78,12.78 0 0 1 -1.82,-0.46 V 72.5 a 9,9 0 0 0 1.77,0.7 6.5,6.5 0 0 0 1.73,0.24 3.24,3.24 0 0 0 1.75,-0.39 1.23,1.23 0 0 0 0.63,-1.11 1.18,1.18 0 0 0 -0.45,-1 5.31,5.31 0 0 0 -1.94,-0.69 l -0.56,-0.12 a 4.48,4.48 0 0 1 -2.19,-1 2.45,2.45 0 0 1 -0.66,-1.82 2.51,2.51 0 0 1 1,-2.12 4.43,4.43 0 0 1 2.79,-0.77 9.93,9.93 0 0 1 1.68,0.14 7.79,7.79 0 0 1 1.46,0.39 z m 0,0"
       class="cls-1"
       inkscape:connector-curvature="0"
       style="fill:#1d1d1b" />
    <path
       id="path60"
       transform="translate(-21,-26.93)"
       d="M 126.37,69.2 V 70 H 119 a 3.66,3.66 0 0 0 1,2.55 3.47,3.47 0 0 0 2.51,0.87 7.16,7.16 0 0 0 1.8,-0.23 A 9,9 0 0 0 126,72.5 V 74 a 8.75,8.75 0 0 1 -1.78,0.56 8.92,8.92 0 0 1 -1.87,0.19 4.73,4.73 0 0 1 -5.09,-5.08 5.38,5.38 0 0 1 1.3,-3.82 4.54,4.54 0 0 1 3.51,-1.43 4,4 0 0 1 3.14,1.28 5,5 0 0 1 1.16,3.47 z m -1.61,-0.47 a 3,3 0 0 0 -0.75,-2.1 2.41,2.41 0 0 0 -1.9,-0.8 3.09,3.09 0 0 0 -2.18,0.76 3.18,3.18 0 0 0 -0.93,2.14 z m 0,0"
       class="cls-1"
       inkscape:connector-curvature="0"
       style="fill:#1d1d1b" />
    <path
       id="path62"
       transform="translate(-21,-26.93)"
       d="m 136.12,65.06 v 1.52 a 6.16,6.16 0 0 0 -1.38,-0.56 5.06,5.06 0 0 0 -1.39,-0.19 3.07,3.07 0 0 0 -2.45,1 5,5 0 0 0 0,5.59 3.07,3.07 0 0 0 2.45,1 5.06,5.06 0 0 0 1.39,-0.19 6.72,6.72 0 0 0 1.38,-0.57 v 1.5 a 6.87,6.87 0 0 1 -1.41,0.47 7.49,7.49 0 0 1 -1.53,0.15 4.65,4.65 0 0 1 -3.55,-1.39 5.35,5.35 0 0 1 -1.29,-3.76 5.26,5.26 0 0 1 1.31,-3.8 4.78,4.78 0 0 1 3.62,-1.38 7,7 0 0 1 1.46,0.16 6.44,6.44 0 0 1 1.39,0.45 z m 0,0"
       class="cls-1"
       inkscape:connector-curvature="0"
       style="fill:#1d1d1b" />
    <path
       id="path64"
       transform="translate(-21,-26.93)"
       d="m 138.78,70.64 v -6 h 1.61 v 5.89 a 3.37,3.37 0 0 0 0.55,2.11 2,2 0 0 0 1.64,0.69 2.65,2.65 0 0 0 2.06,-0.83 3.28,3.28 0 0 0 0.77,-2.28 V 64.69 H 147 v 9.84 h -1.62 V 73 a 4.08,4.08 0 0 1 -1.38,1.36 3.68,3.68 0 0 1 -1.8,0.42 3.15,3.15 0 0 1 -2.57,-1 4.69,4.69 0 0 1 -0.88,-3.09 z m 4.06,-6.19 v 0"
       class="cls-1"
       inkscape:connector-curvature="0"
       style="fill:#1d1d1b" />
    <path
       id="path66"
       transform="translate(-21,-26.93)"
       d="m 156.08,66.2 a 2.34,2.34 0 0 0 -0.61,-0.23 3,3 0 0 0 -0.7,-0.08 2.55,2.55 0 0 0 -2.09,0.89 3.89,3.89 0 0 0 -0.74,2.56 v 5.19 h -1.62 v -9.84 h 1.62 v 1.53 a 3.17,3.17 0 0 1 1.31,-1.33 4.28,4.28 0 0 1 2,-0.44 h 0.36 0.46 z m 0,0"
       class="cls-1"
       inkscape:connector-curvature="0"
       style="fill:#1d1d1b" />
    <path
       id="path68"
       transform="translate(-21,-26.93)"
       d="m 157.8,64.69 h 1.61 v 9.84 h -1.61 z m 0,-3.83 h 1.61 v 2 h -1.61 z m 0,0"
       class="cls-1"
       inkscape:connector-curvature="0"
       style="fill:#1d1d1b" />
    <path
       id="path70"
       transform="translate(-21,-26.93)"
       d="m 164.38,61.89 v 2.8 h 3.33 v 1.25 h -3.33 v 5.34 a 2.41,2.41 0 0 0 0.33,1.55 1.9,1.9 0 0 0 1.34,0.34 h 1.66 v 1.36 h -1.66 a 3.76,3.76 0 0 1 -2.59,-0.69 3.58,3.58 0 0 1 -0.7,-2.56 v -5.34 h -1.19 v -1.25 h 1.19 v -2.8 z m 0,0"
       class="cls-1"
       inkscape:connector-curvature="0"
       style="fill:#1d1d1b" />
    <path
       id="path72"
       transform="translate(-21,-26.93)"
       d="m 174,75.45 a 5.68,5.68 0 0 1 -1.35,2.28 2.53,2.53 0 0 1 -1.73,0.55 h -1.3 v -1.36 h 1 a 1.53,1.53 0 0 0 1,-0.31 4.1,4.1 0 0 0 0.83,-1.5 l 0.28,-0.73 -4,-9.69 h 1.72 l 3.08,7.7 3.08,-7.7 h 1.7 z m 0,0"
       class="cls-1"
       inkscape:connector-curvature="0"
       style="fill:#1d1d1b" />
  </g>
</svg>
