<?xml version="1.0" encoding="utf-8"?>
<!-- Generator: Adobe Illustrator 23.0.1, SVG Export Plug-In . SVG Version: 6.00 Build 0)  -->
<svg version="1.0" id="Capa_1" xmlns="http://www.w3.org/2000/svg" xmlns:xlink="http://www.w3.org/1999/xlink" x="0px" y="0px"
	 viewBox="0 0 238 183" style="enable-background:new 0 0 238 183;" xml:space="preserve">
<style type="text/css">
	.st0{fill:#1D1D1B;}
	.st1{fill:#005CB9;}
	.st2{fill:#FFFFFF;}
</style>
<g>
	<g>
		<g>
			<path class="st0" d="M88.28,155.8h-2.7v-24.21h3.5c4.59,0,8.86,1.22,8.86,6.68c0,3.73-2.34,6.36-6.07,6.68l7.71,10.85h-3.31
				l-7.32-10.63h-0.67V155.8z M88.28,142.8h0.83c3.05,0,6.13-0.58,6.13-4.34c0-3.98-2.92-4.37-6.16-4.37h-0.8V142.8z"/>
			<path class="st0" d="M108.7,130.21l8.8,20.33l8.83-20.33l4.91,25.59h-2.76l-3.12-16.38h-0.06l-7.8,17.37l-7.77-17.37h-0.06
				l-3.11,16.38h-2.76L108.7,130.21z"/>
			<path class="st0" d="M140.52,148.93l-2.92,6.87h-2.95l11.17-25.37l10.88,25.37h-2.99l-2.86-6.87H140.52z M145.75,136.73
				l-4.14,9.7h8.19L145.75,136.73z"/>
			<path class="st0" d="M162.06,130.56l18.88,19.78v-18.75h2.7v25.3l-18.88-19.75v18.66h-2.7V130.56z"/>
			<path class="st0" d="M191.25,131.59h4.56c3.63,0,6.58,0.48,9.44,2.92c2.76,2.38,4.01,5.62,4.01,9.21c0,3.53-1.28,6.65-3.95,9.02
				c-2.89,2.57-5.78,3.05-9.57,3.05h-4.5V131.59z M195.91,153.3c2.96,0,5.43-0.42,7.64-2.5c1.99-1.86,3.02-4.4,3.02-7.1
				c0-2.76-1.06-5.43-3.15-7.26c-2.21-1.96-4.66-2.34-7.51-2.34h-1.96v19.2H195.91z"/>
		</g>
		<g>
			<path class="st0" d="M26.02,130.56l18.88,19.78v-18.75h2.7v25.3l-18.88-19.75v18.66h-2.7V130.56z"/>
		</g>
		<g>
			<path class="st1" d="M78.98,143.24c0,7.02-5.76,12.59-12.72,12.59c-6.96,0-12.72-5.57-12.72-12.59c0-6.99,5.76-12.66,12.72-12.66
				C73.21,130.58,78.98,136.24,78.98,143.24z"/>
			<path class="st2" d="M66.25,138.55c-2.02,0-3.66,1.64-3.66,3.66c0,0.4,0.33,0.73,0.73,0.73c0.41,0,0.73-0.33,0.73-0.73
				c0-1.21,0.99-2.2,2.2-2.2c1.21,0,2.2,0.98,2.2,2.2v10.59c0,0.4,0.33,0.73,0.73,0.73c0.41,0,0.73-0.33,0.73-0.73v-10.59
				C69.91,140.19,68.27,138.55,66.25,138.55L66.25,138.55z M66.25,138.55"/>
			<path class="st2" d="M66.25,141.64c-0.4,0-0.73,0.33-0.73,0.73v2.25c0,0.4,0.33,0.73,0.73,0.73s0.73-0.33,0.73-0.73v-2.25
				C66.99,141.97,66.66,141.64,66.25,141.64L66.25,141.64z M66.25,141.64"/>
			<path class="st2" d="M66.25,146.2c-0.4,0-0.73,0.33-0.73,0.73v6.44c0,0.41,0.33,0.73,0.73,0.73s0.73-0.33,0.73-0.73v-6.44
				C66.99,146.53,66.66,146.2,66.25,146.2L66.25,146.2z M66.25,146.2"/>
			<path class="st2" d="M63.33,149.17c-0.41,0-0.73,0.33-0.73,0.73v2.9c0,0.4,0.33,0.73,0.73,0.73c0.41,0,0.73-0.33,0.73-0.73v-2.9
				C64.06,149.49,63.73,149.17,63.33,149.17L63.33,149.17z M63.33,149.17"/>
			<path class="st2" d="M63.33,141.53c-0.41,0-0.73,0.33-0.73,0.73v5.39c0,0.4,0.33,0.73,0.73,0.73c0.41,0,0.73-0.33,0.73-0.73
				v-5.39C64.06,141.86,63.73,141.53,63.33,141.53L63.33,141.53z M63.33,141.53"/>
			<path class="st2" d="M72.11,142.57c-0.4,0-0.73,0.33-0.73,0.73v8.2c0,0.4,0.33,0.73,0.73,0.73c0.41,0,0.73-0.33,0.73-0.73v-8.2
				C72.84,142.9,72.51,142.57,72.11,142.57L72.11,142.57z M72.11,142.57"/>
			<path class="st2" d="M57.47,147.07c-0.4,0-0.73,0.33-0.73,0.73v0.99c0,0.4,0.33,0.73,0.73,0.73c0.4,0,0.73-0.33,0.73-0.73v-0.99
				C58.2,147.4,57.87,147.07,57.47,147.07L57.47,147.07z M57.47,147.07"/>
			<path class="st2" d="M57.47,141.53c-0.4,0-0.73,0.33-0.73,0.73v3.21c0,0.4,0.33,0.73,0.73,0.73c0.4,0,0.73-0.33,0.73-0.73v-3.21
				C58.2,141.86,57.87,141.53,57.47,141.53L57.47,141.53z M57.47,141.53"/>
			<path class="st2" d="M61.1,139.34c-0.38-0.15-0.8,0.03-0.95,0.4c-0.32,0.79-0.48,1.62-0.48,2.47v9.29c0,0.4,0.33,0.73,0.73,0.73
				c0.4,0,0.73-0.33,0.73-0.73v-9.29c0-0.67,0.12-1.31,0.37-1.92C61.65,139.91,61.47,139.49,61.1,139.34L61.1,139.34z M61.1,139.34"
				/>
			<path class="st2" d="M66.25,135.62c-1.5,0-2.96,0.51-4.12,1.45c-0.32,0.25-0.37,0.71-0.11,1.03c0.25,0.31,0.71,0.36,1.03,0.11
				c0.92-0.74,2.03-1.13,3.21-1.13c2.83,0,5.12,2.3,5.12,5.13v1.46c0,0.41,0.33,0.73,0.73,0.73c0.41,0,0.73-0.33,0.73-0.73v-1.46
				C72.84,138.57,69.89,135.62,66.25,135.62L66.25,135.62z M66.25,135.62"/>
			<path class="st2" d="M69.48,134.83c0.37,0.16,0.8-0.01,0.97-0.38c0.16-0.37-0.01-0.8-0.38-0.96c-1.2-0.53-2.49-0.79-3.81-0.79
				c-5.25,0-9.52,4.27-9.52,9.52c0,0.4,0.33,0.73,0.73,0.73c0.4,0,0.73-0.33,0.73-0.73c0-4.44,3.61-8.05,8.05-8.05
				C67.37,134.16,68.46,134.38,69.48,134.83L69.48,134.83z M69.48,134.83"/>
			<path class="st2" d="M72.31,135.81c-0.3,0.27-0.33,0.73-0.06,1.03c1.32,1.48,2.05,3.39,2.05,5.37v6.59c0,0.4,0.33,0.73,0.73,0.73
				c0.41,0,0.74-0.33,0.74-0.73v-6.59c0-2.35-0.86-4.6-2.43-6.35C73.08,135.56,72.62,135.53,72.31,135.81L72.31,135.81z
				 M72.31,135.81"/>
		</g>
	</g>
	<g>
		<path class="st1" d="M161.53,62.67c0,24.23-19.88,43.45-43.89,43.45c-24.02,0-43.89-19.21-43.89-43.45
			C73.75,38.55,93.62,19,117.64,19C141.65,19,161.53,38.55,161.53,62.67z"/>
		<path class="st2" d="M117.64,46.49c-6.97,0-12.64,5.66-12.64,12.63c0,1.39,1.13,2.52,2.53,2.52c1.4,0,2.52-1.13,2.52-2.52
			c0-4.19,3.41-7.59,7.58-7.59c4.17,0,7.57,3.4,7.57,7.59v36.52c0,1.39,1.13,2.53,2.53,2.53c1.4,0,2.53-1.13,2.53-2.53V59.13
			C130.27,52.16,124.6,46.49,117.64,46.49L117.64,46.49z M117.64,46.49"/>
		<path class="st2" d="M117.64,57.18c-1.39,0-2.52,1.13-2.52,2.52v7.75c0,1.39,1.13,2.53,2.52,2.53c1.39,0,2.52-1.14,2.52-2.53V59.7
			C120.16,58.3,119.03,57.18,117.64,57.18L117.64,57.18z M117.64,57.18"/>
		<path class="st2" d="M117.64,72.9c-1.39,0-2.52,1.13-2.52,2.52v22.22c0,1.4,1.13,2.53,2.52,2.53c1.39,0,2.52-1.13,2.52-2.53V75.42
			C120.16,74.03,119.03,72.9,117.64,72.9L117.64,72.9z M117.64,72.9"/>
		<path class="st2" d="M107.53,83.13c-1.4,0-2.53,1.13-2.53,2.53v9.99c0,1.39,1.13,2.53,2.53,2.53c1.4,0,2.52-1.13,2.52-2.53v-9.99
			C110.05,84.26,108.93,83.13,107.53,83.13L107.53,83.13z M107.53,83.13"/>
		<path class="st2" d="M107.53,56.79c-1.4,0-2.53,1.13-2.53,2.52v18.59c0,1.39,1.13,2.53,2.53,2.53c1.4,0,2.52-1.14,2.52-2.53V59.31
			C110.05,57.92,108.93,56.79,107.53,56.79L107.53,56.79z M107.53,56.79"/>
		<path class="st2" d="M137.84,60.39c-1.38,0-2.52,1.13-2.52,2.52v28.27c0,1.39,1.15,2.53,2.52,2.53c1.4,0,2.53-1.14,2.53-2.53
			V62.91C140.37,61.52,139.24,60.39,137.84,60.39L137.84,60.39z M137.84,60.39"/>
		<path class="st2" d="M87.33,75.91c-1.39,0-2.53,1.13-2.53,2.53v3.43c0,1.39,1.14,2.53,2.53,2.53c1.39,0,2.53-1.14,2.53-2.53v-3.43
			C89.86,77.04,88.72,75.91,87.33,75.91L87.33,75.91z M87.33,75.91"/>
		<path class="st2" d="M87.33,56.79c-1.39,0-2.53,1.13-2.53,2.52v11.06c0,1.39,1.14,2.53,2.53,2.53c1.39,0,2.53-1.14,2.53-2.53
			V59.31C89.86,57.92,88.72,56.79,87.33,56.79L87.33,56.79z M87.33,56.79"/>
		<path class="st2" d="M99.85,49.21c-1.31-0.53-2.78,0.1-3.29,1.38c-1.11,2.71-1.66,5.57-1.66,8.53v32.05c0,1.4,1.13,2.53,2.53,2.53
			c1.39,0,2.52-1.13,2.52-2.53V59.13c0-2.3,0.42-4.53,1.28-6.63C101.77,51.2,101.13,49.73,99.85,49.21L99.85,49.21z M99.85,49.21"/>
		<path class="st2" d="M117.64,36.39c-5.17,0-10.22,1.77-14.22,5c-1.09,0.88-1.26,2.46-0.39,3.56c0.87,1.08,2.46,1.25,3.55,0.39
			c3.17-2.55,7-3.89,11.07-3.89c9.75,0,17.68,7.93,17.68,17.69v5.05c0,1.4,1.15,2.53,2.52,2.53c1.4,0,2.53-1.13,2.53-2.53v-5.05
			C140.37,46.58,130.17,36.39,117.64,36.39L117.64,36.39z M117.64,36.39"/>
		<path class="st2" d="M128.76,33.65c1.28,0.54,2.78-0.02,3.33-1.31c0.56-1.27-0.04-2.77-1.3-3.33c-4.16-1.81-8.59-2.74-13.15-2.74
			c-18.1,0-32.84,14.73-32.84,32.85c0,1.39,1.14,2.52,2.53,2.52c1.39,0,2.53-1.13,2.53-2.52c0-15.32,12.45-27.79,27.78-27.79
			C121.49,31.34,125.24,32.11,128.76,33.65L128.76,33.65z M128.76,33.65"/>
		<path class="st2" d="M138.55,37.03c-1.04,0.93-1.13,2.53-0.2,3.56c4.56,5.09,7.07,11.69,7.07,18.53v22.73
			c0,1.39,1.14,2.53,2.53,2.53c1.4,0,2.54-1.14,2.54-2.53V59.13c0-8.1-2.97-15.87-8.38-21.9C141.19,36.2,139.59,36.09,138.55,37.03
			L138.55,37.03z M138.55,37.03"/>
	</g>
</g>
</svg>
