<?xml version="1.0" encoding="UTF-8" standalone="no"?>
<svg
   xmlns:dc="http://purl.org/dc/elements/1.1/"
   xmlns:cc="http://creativecommons.org/ns#"
   xmlns:rdf="http://www.w3.org/1999/02/22-rdf-syntax-ns#"
   xmlns:svg="http://www.w3.org/2000/svg"
   xmlns="http://www.w3.org/2000/svg"
   id="svg1144"
   version="1.1"
   viewBox="0 0 90.000997 12"
   height="1.2cm"
   width="9.0001001cm">
  <defs
     id="defs1138">
    <clipPath
       id="clipPath278"
       clipPathUnits="userSpaceOnUse">
      <path
         id="path276"
         d="M 0,841.89 H 595.28 V 0 H 0 Z" />
    </clipPath>
    <clipPath
       id="clipPath238"
       clipPathUnits="userSpaceOnUse">
      <path
         id="path236"
         d="M 0,841.89 H 595.28 V 0 H 0 Z" />
    </clipPath>
    <clipPath
       id="clipPath254"
       clipPathUnits="userSpaceOnUse">
      <path
         id="path252"
         d="M 0,841.89 H 595.28 V 0 H 0 Z" />
    </clipPath>
  </defs>
  <metadata
     id="metadata1141">
    <rdf:RDF>
      <cc:Work
         rdf:about="">
        <dc:format>image/svg+xml</dc:format>
        <dc:type
           rdf:resource="http://purl.org/dc/dcmitype/StillImage" />
        <dc:title></dc:title>
      </cc:Work>
    </rdf:RDF>
  </metadata>
  <g
     transform="translate(0,-285)"
     id="layer1">
    <g
       id="g1781"
       transform="matrix(0.35277777,0,0,-0.35277777,-59.01013,410.34983)">
      <path
         transform="translate(416.582,335.5186)"
         d="m 0,0 c 0,-6.628 -5.372,-12 -12,-12 h -211.665 c -6.628,0 -12,5.372 -12,12 v 6.341 c 0,6.628 5.372,12 12,12 H -12 c 6.628,0 12,-5.372 12,-12 z"
         style="fill:#ef7e81;fill-opacity:1;fill-rule:nonzero;stroke:none"
         id="path266" />
      <g
         id="g272"
         transform="translate(1.5,1.5)">
        <g
           id="g274"
           clip-path="url(#clipPath278)">
          <g
             id="g280"
             transform="translate(203.4297,337.7256)">
            <path
               d="m 0,0 c 0,-8.298 -6.838,-15.026 -15.275,-15.026 -8.439,0 -15.277,6.728 -15.277,15.026 0,8.298 6.838,15.026 15.277,15.026 C -6.838,15.026 0,8.298 0,0"
               style="fill:#ffffff;fill-opacity:1;fill-rule:nonzero;stroke:none"
               id="path282" />
          </g>
          <g
             id="g284"
             transform="translate(203.4297,337.7256)">
            <path
               d="m 0,0 c 0,-8.298 -6.838,-15.026 -15.275,-15.026 -8.439,0 -15.277,6.728 -15.277,15.026 0,8.298 6.838,15.026 15.277,15.026 C -6.838,15.026 0,8.298 0,0 Z"
               style="fill:none;stroke:#ef7d81;stroke-width:1;stroke-linecap:butt;stroke-linejoin:miter;stroke-miterlimit:10;stroke-dasharray:none;stroke-opacity:1"
               id="path286" />
          </g>
          <g
             id="g288"
             transform="translate(182.4473,332.9375)">
            <path
               d="m 0,0 c 0,0.275 0.122,0.538 0.328,0.719 1.334,1.15 2.162,3.738 2.162,6.749 0,1.649 1.342,2.988 2.988,2.988 1.648,0 2.988,-1.339 2.988,-2.988 0,-3.011 0.828,-5.599 2.161,-6.749 C 10.836,0.538 10.955,0.275 10.955,0 Z m 11.604,1.846 c -0.958,0.831 -1.646,3.033 -1.646,5.622 0,1.96 -1.261,3.623 -3.011,4.23 -0.118,0.708 -0.727,1.247 -1.469,1.247 -0.739,0 -1.35,-0.539 -1.468,-1.247 C 2.257,11.091 0.997,9.428 0.997,7.468 0.997,4.879 0.312,2.677 -0.648,1.846 -1.184,1.384 -1.492,0.71 -1.492,0 c 0,-0.824 0.668,-1.492 1.492,-1.492 h 3.985 c 0,-0.826 0.668,-1.495 1.493,-1.495 0.827,0 1.495,0.669 1.495,1.495 h 3.982 c 0.823,0 1.492,0.668 1.492,1.492 0,0.71 -0.306,1.384 -0.843,1.846"
               style="fill:#ef7e81;fill-opacity:1;fill-rule:evenodd;stroke:none"
               id="path290" />
          </g>
        </g>
      </g>
    </g>
    <g
       transform="translate(-47.095857,60.854199)"
       id="g2039">
      <g
         id="g240"
         transform="matrix(0.35277777,0,0,-0.35277777,135.5502,231.06861)">
        <path
           d="m 0,0 c 0,-6.627 -5.372,-12 -12,-12 h -211.665 c -6.628,0 -12,5.373 -12,12 v 6.342 c 0,6.627 5.372,12 12,12 H -12 c 6.628,0 12,-5.373 12,-12 z"
           style="fill:#005db9;fill-opacity:1;fill-rule:nonzero;stroke:none"
           id="path242" />
      </g>
      <g
         id="g2002"
         transform="translate(0,-0.52916667)">
        <g
           transform="matrix(0.35277777,0,0,-0.35277777,-11.346959,361.42656)"
           id="g248">
          <g
             clip-path="url(#clipPath254)"
             id="g250">
            <g
               transform="translate(203.249,371.7256)"
               id="g256">
              <path
                 id="path258"
                 style="fill:#ffffff;fill-opacity:1;fill-rule:nonzero;stroke:none"
                 d="m 0,0 c 0,-8.299 -6.838,-15.026 -15.275,-15.026 -8.439,0 -15.277,6.727 -15.277,15.026 0,8.298 6.838,15.025 15.277,15.025 C -6.838,15.025 0,8.298 0,0" />
            </g>
            <g
               transform="translate(203.249,371.7256)"
               id="g260">
              <g
                 id="g1990">
                <path
                   d="m 0,0 c 0,-8.299 -6.838,-15.026 -15.275,-15.026 -8.439,0 -15.277,6.727 -15.277,15.026 0,8.298 6.838,15.025 15.277,15.025 C -6.838,15.025 0,8.298 0,0 Z"
                   style="fill:none;stroke:#005db9;stroke-width:1;stroke-linecap:butt;stroke-linejoin:miter;stroke-miterlimit:10;stroke-dasharray:none;stroke-opacity:1"
                   id="path262" />
              </g>
            </g>
            <g
               transform="translate(416.582,335.5186)"
               id="g264" />
          </g>
        </g>
        <text
           y="231.67258"
           x="52.765568"
           id="text294"
           style="font-variant:normal;font-weight:normal;font-stretch:normal;font-size:3.52777767px;font-family:'Myriad Pro';-inkscape-font-specification:MyriadPro-Regular;writing-mode:lr-tb;fill:#005db9;fill-opacity:1;fill-rule:nonzero;stroke:none;stroke-width:0.35277778">
          <tspan
             style="stroke-width:0.35277778"
             id="tspan292"
             y="231.67258"
             x="52.765568 55.196205">OK</tspan>
        </text>
      </g>
    </g>
  </g>
</svg>
